# xmcd CD database file
#
# Track frame offsets:
#	151
#	17626
#	31607
#	50104
#	63983
#	82920
#	98181
#	114220
#	135111
#	153554
#	170365
#	190284
#	203025
#	220056
#	240239
#	256186
#	280893
#	298790
#
# Disc length: 4260 seconds
#
# Revision: 0
# Processed by: cddbd v1.4PL0 Copyright (c) Steve Scherf et al.
# Submitted via: CDex 1.50Beta7
#
DISCID=ea10a212
DTITLE=Various Artist - Ljubov' na dvoix - Sbornik dlja ljubimyx
DYEAR=2002
DGENRE=Blues
TTITLE0=Ne Para - Drugaja prichina
TTITLE1=K. Orbakajte i A. Russo - Ljubov', kotoroj bol'she net
TTITLE2=L. Agutin i A. Varum - Esli ty menja prostish'
TTITLE3=Chicherina - Veter peremen
TTITLE4=Gosti iz Buduschego - Ne govori o ljubvi
TTITLE5=Malo - Naberi moj nomer
TTITLE6=Ju. Shatunov - Padajut list'ja
TTITLE7=N. Vlasova - Ne beda razluka
TTITLE8=A. Bandera - Ivushki
TTITLE9=VIA Gra - Stop! Stop! Stop!
TTITLE10=D. Malikov - 100 potseluev
TTITLE11=Paskal' - Nevidimyj
TTITLE12=140 P.M. - Skazhi ob etom srazu
TTITLE13=K. Lel' - Zaberi menja
TTITLE14=Sveta - Shok-sljozy
TTITLE15=Fantazy - Ty voshjol v menja sluchajno
TTITLE16=Green Gray - Vesna vos'mogo dnja
TTITLE17=Belle-trio - Notre Dame De Paris
EXTD=YEAR: 2002
EXTT0=
EXTT1=
EXTT2=
EXTT3=
EXTT4=
EXTT5=
EXTT6=
EXTT7=
EXTT8=
EXTT9=
EXTT10=
EXTT11=
EXTT12=
EXTT13=
EXTT14=
EXTT15=
EXTT16=
EXTT17=
PLAYORDER=
